<svg enable-background="new 0 0 313 130" viewBox="0 0 313 130" xmlns="http://www.w3.org/2000/svg" xmlns:xlink="http://www.w3.org/1999/xlink"><clipPath id="a"><path d="m0 0h313v130h-313z"/></clipPath><clipPath id="b"><path d="m43.266 43.399h40.255v43.376h-40.255z"/></clipPath><clipPath id="c"><path d="m89.875 47.917h180v24.58h-180z"/></clipPath><g fill="#fff"><path clip-path="url(#a)" d="m122.86 77.682c0-.768-.025-2.193-.234-2.564-.088-.151-.311-.237-.621-.262l-.309-.024c-.074-.088-.051-.248.023-.298.473.025.93.037 1.414.037.52 0 .854-.012 1.301-.037.1.062.086.222.026.298l-.299.024c-.309.025-.545.137-.619.299-.172.408-.172 1.832-.172 2.527v1.402c0 1.077-.174 2.217-.869 2.959-.534.584-1.452.907-2.368.907-.855 0-1.709-.163-2.316-.682-.656-.545-.967-1.449-.967-2.924v-2.926c0-1.289-.025-1.5-.744-1.562l-.308-.024c-.075-.05-.051-.261.023-.298.619.025 1.041.037 1.537.037.508 0 .918-.012 1.523-.037.075.037.1.248.026.298l-.297.024c-.719.062-.744.273-.744 1.562v2.678c0 1.994.619 3.307 2.515 3.307 1.797 0 2.479-1.41 2.479-3.295z"/><path clip-path="url(#a)" d="m139.054 80.645c0 .371 0 1.846.037 2.168-.023.074-.098.137-.234.137-.149-.211-.508-.645-1.586-1.871l-2.875-3.272c-.336-.385-1.178-1.4-1.438-1.674h-.025c-.049.149-.063.436-.063.805v2.701c0 .584.014 2.195.225 2.567.074.136.322.21.633.234l.383.039c.074.098.062.246-.026.309-.556-.024-.99-.038-1.449-.038-.521 0-.855.014-1.289.038-.088-.063-.1-.235-.025-.309l.334-.039c.287-.037.484-.111.546-.248.174-.443.161-1.957.161-2.553v-3.58c0-.348-.012-.607-.272-.893-.174-.173-.473-.259-.769-.296l-.209-.026c-.075-.074-.075-.26.023-.31.52.037 1.178.037 1.4.037.2 0 .409-.012.571-.037.248.632 1.711 2.269 2.119 2.726l1.201 1.352c.856.953 1.463 1.648 2.047 2.244h.023c.051-.063.051-.262.051-.522v-2.652c0-.582-.014-2.193-.248-2.564-.074-.114-.273-.188-.769-.248l-.211-.026c-.086-.074-.075-.273.025-.31.57.025.992.037 1.463.037.531 0 .855-.012 1.275-.037.1.062.1.236.026.31l-.174.026c-.397.06-.645.16-.694.259-.21.448-.187 1.983-.187 2.553z"/><path clip-path="url(#a)" d="m148.284 76.455c0-1.314-.025-1.525-.756-1.586l-.31-.025c-.075-.051-.049-.274.025-.311.619.026 1.041.037 1.562.037.495 0 .916-.011 1.536-.037.074.037.099.26.025.311l-.309.025c-.732.061-.757.272-.757 1.586v4.412c0 1.313.025 1.486.757 1.572l.309.039c.074.049.049.272-.025.309-.62-.023-1.041-.037-1.536-.037-.521 0-.943.014-1.562.037-.074-.037-.1-.234-.025-.309l.31-.039c.731-.086.756-.259.756-1.572z"/><path clip-path="url(#a)" d="m158.321 75.885c-.285-.693-.471-.955-1.004-1.016l-.225-.025c-.085-.074-.074-.248.026-.311.359.026.756.038 1.289.038.545 0 .978-.012 1.5-.038.086.051.111.237.025.311l-.187.025c-.471.061-.569.135-.582.235.025.125.234.795.619 1.736.57 1.438 1.141 2.861 1.762 4.275.382-.818.904-2.093 1.189-2.751.358-.842.942-2.243 1.152-2.776.1-.26.112-.396.112-.484 0-.086-.125-.186-.559-.235l-.222-.025c-.088-.074-.063-.26.025-.311.346.026.818.038 1.287.038.41 0 .795-.012 1.203-.038.086.051.086.248.026.311l-.372.025c-.298.024-.484.174-.646.434-.346.582-.83 1.588-1.387 2.85l-.67 1.523c-.496 1.143-1.078 2.578-1.289 3.236-.037.024-.086.037-.134.037-.063 0-.125-.013-.188-.037-.137-.521-.359-1.127-.57-1.648z"/><path clip-path="url(#a)" d="m173.239 76.432c0-1.291-.025-1.477-.756-1.562l-.199-.026c-.074-.051-.049-.273.025-.31.534.025.955.037 1.463.037h2.33c.793 0 1.524 0 1.672-.037.074.211.149 1.103.199 1.65-.05.074-.248.098-.31.023-.186-.582-.297-1.015-.942-1.177-.259-.063-.656-.075-1.203-.075h-.892c-.369 0-.369.026-.369.497v2.478c0 .348.037.348.406.348h.721c.519 0 .904-.026 1.052-.075.151-.05.237-.125.299-.435l.1-.508c.06-.074.269-.074.32.012 0 .299-.051.783-.051 1.254 0 .445.051.918.051 1.187-.051.088-.26.088-.32.014l-.114-.482c-.048-.223-.134-.409-.382-.471-.174-.051-.473-.063-.955-.063h-.721c-.369 0-.406.012-.406.336v1.746c0 .657.037 1.078.232 1.287.15.149.41.286 1.502.286.955 0 1.312-.049 1.586-.186.223-.123.557-.557.879-1.201.088-.063.262-.026.31.088-.086.433-.396 1.386-.558 1.72-1.115-.023-2.217-.037-3.321-.037h-1.115c-.533 0-.955.014-1.687.037-.075-.037-.098-.234-.024-.308l.408-.039c.708-.061.77-.248.77-1.547z"/><path clip-path="url(#a)" d="m186.668 76.444c0-1.178-.037-1.389-.544-1.452l-.397-.048c-.086-.063-.086-.262.014-.311.691-.063 1.549-.1 2.761-.1.77 0 1.5.063 2.071.373.593.309 1.027.868 1.027 1.737 0 1.176-.928 1.82-1.547 2.068-.062.074 0 .199.061.299.99 1.598 1.648 2.59 2.492 3.295.211.185.521.322.855.346.063.025.073.125.012.173-.111.037-.31.063-.545.063-1.055 0-1.687-.311-2.564-1.561-.324-.459-.832-1.314-1.217-1.871-.186-.273-.385-.396-.879-.396-.559 0-.582.011-.582.273v1.561c0 1.299.023 1.449.744 1.547l.258.039c.074.06.051.271-.023.308-.557-.023-.979-.037-1.475-.037-.522 0-.969.014-1.549.037-.074-.037-.1-.222-.025-.308l.308-.039c.719-.086.744-.248.744-1.547zm1.018 1.771c0 .223 0 .359.037.41.037.037.223.061.854.061.447 0 .918-.049 1.277-.323.334-.259.619-.693.619-1.535 0-.98-.605-1.91-1.984-1.91-.766 0-.803.049-.803.397z"/><path clip-path="url(#a)" d="m201.645 82.949c-1.039 0-1.697-.322-1.934-.459-.148-.273-.308-1.152-.334-1.734.063-.088.248-.112.299-.037.186.632.694 1.845 2.131 1.845 1.041 0 1.551-.679 1.551-1.424 0-.546-.113-1.154-1.018-1.734l-1.175-.769c-.622-.411-1.34-1.116-1.34-2.131 0-1.178.918-2.133 2.527-2.133.385 0 .83.074 1.154.16.16.051.332.074.432.074.111.299.223.992.223 1.514-.049.074-.248.111-.309.037-.16-.596-.494-1.402-1.686-1.402-1.212 0-1.474.806-1.474 1.377 0 .72.594 1.238 1.053 1.523l.992.621c.781.483 1.549 1.201 1.549 2.379 0 1.363-1.028 2.293-2.641 2.293"/><path clip-path="url(#a)" d="m212.71 76.455c0-1.314-.023-1.525-.756-1.586l-.31-.025c-.075-.051-.049-.274.025-.311.621.026 1.041.037 1.562.037.497 0 .916-.011 1.538-.037.074.037.099.26.023.311l-.311.025c-.728.061-.753.272-.753 1.586v4.412c0 1.313.025 1.486.753 1.572l.311.039c.076.049.051.272-.023.309-.622-.023-1.041-.037-1.538-.037-.521 0-.941.014-1.562.037-.074-.037-.1-.234-.025-.309l.31-.039c.733-.086.756-.259.756-1.572z"/><path clip-path="url(#a)" d="m226.47 80.893c0 1.299.023 1.486.74 1.547l.399.039c.074.049.048.271-.026.309-.707-.024-1.127-.038-1.623-.038s-.929.014-1.724.038c-.075-.038-.098-.249 0-.309l.447-.039c.707-.061.769-.248.769-1.547v-5.541c0-.385 0-.396-.373-.396h-.681c-.532 0-1.213.025-1.524.31-.297.273-.422.545-.558.856-.098.074-.274.011-.323-.086.2-.559.385-1.354.471-1.848.039-.024.199-.037.236 0 .075.396.485.383 1.055.383h5.02c.668 0 .779-.024.965-.346.062-.023.199-.012.222.037-.137.508-.222 1.512-.185 1.885-.049.098-.26.098-.323.023-.037-.308-.125-.767-.308-.904-.285-.211-.756-.31-1.44-.31h-.879c-.371 0-.357.011-.357.421z"/><path clip-path="url(#a)" d="m240.593 80.867c0 1.324.074 1.523.744 1.572l.473.039c.072.075.049.272-.026.309-.769-.024-1.191-.037-1.687-.037-.522 0-.965.013-1.623.037-.074-.037-.1-.234-.026-.309l.387-.039c.717-.074.74-.248.74-1.572v-.633c0-.681-.037-.842-.394-1.535l-1.463-2.852c-.422-.818-.607-.88-.979-.941l-.347-.062c-.074-.088-.061-.26.025-.311.395.025.842.037 1.438.037.57 0 1.015-.012 1.326-.037.111.037.111.236.037.311l-.16.025c-.434.061-.522.123-.522.223 0 .123.323.83.385.955.457.916.916 1.894 1.401 2.752.382-.659.792-1.377 1.164-2.096.347-.645.804-1.488.804-1.637 0-.074-.222-.16-.519-.197l-.223-.025c-.086-.088-.074-.26.025-.311.444.025.805.037 1.188.037.385 0 .732-.012 1.154-.037.1.063.112.236.026.311l-.348.062c-.645.111-1.018.893-1.637 1.959l-.779 1.35c-.547.943-.584 1.054-.584 2.007z"/><path clip-path="url(#b)" d="m74.636 47.828c-.032-.061-1.955-1.013-1.955-1.013-2.445-.513-6.474-.288-9.283.745h-.01c-2.811-1.033-6.836-1.258-9.282-.745 0 0-1.924.952-1.953 1.013l-2.98 6.576c-.097.183.056.339.225.305 4.53-.86 9.732-1.125 13.993-1.125h.004c4.26 0 9.463.265 13.992 1.125.171.034.322-.122.226-.305zm-11.947 4.734c-3.229-.128-8.801-.128-11.595.872l1.986-4.97 1.353-.724-1.437 4.094c2.911-.55 6.131-.755 9.701.413zm1.362 0v-.315c3.568-1.168 6.79-.963 9.7-.413l-1.444-4.094 1.355.724 1.986 4.97c-2.651-.999-8.224-.999-11.597-.872"/><path clip-path="url(#b)" d="m81.864 45.369-.02-.008-.127-.029c-5.998-1.283-12.163-1.933-18.324-1.933-6.164 0-12.337.652-18.346 1.937l-.059.012-.056.018c-.961.237-1.667 1.139-1.667 2.182l.002 3.265c0 23.548 14.571 33.101 19.037 35.468.357.19.728.287 1.096.287.37 0 .737-.097 1.091-.29 4.454-2.361 19.029-11.917 19.029-35.465v-3.265c0-1.018-.686-1.912-1.656-2.179m-19.292 39.557c-4.924-2.717-14.813-10.424-17.37-26.224l.12-.025c5.63-1.189 11.43-1.813 17.25-1.868zm15.578-15.144c-.003.004-.006.012-.009.017-1.046 2.167-2.229 4.088-3.475 5.773-.003.003-.003.004-.004.004-1.134 1.533-2.311 2.882-3.482 4.045v-6.37l-3.484-2.318v11.715c-1.295.977-2.488 1.731-3.481 2.278v-16.312l3.481 2.319v-8.107l3.484 2.316v-7.994c1.164.103 2.326.223 3.482.372v9.94l3.479 2.316v-11.73c1.114.19 2.223.393 3.326.626l.119.026c-.69 4.266-1.916 7.937-3.436 11.084m-13.935-9.276v-3.697c1.162.01 2.323.04 3.481.097v5.919zm17.988-9.693c0 2.145-.13 4.169-.363 6.084-12.082-2.552-24.793-2.552-36.892.006-.234-1.918-.364-3.944-.364-6.09l-.002-3.266c0-.443.305-.814.718-.917l.022-.007c5.828-1.247 11.873-1.908 18.071-1.908 6.191 0 12.228.66 18.046 1.903l.014.005c.431.088.752.469.752.924z"/><path clip-path="url(#b)" d="m74.662 67.46-3.482-2.317v8.108l3.482 2.317z"/><path clip-path="url(#b)" d="m55.123 72.568c3.514 0 6.374-2.859 6.374-6.373 0-3.515-2.86-6.374-6.374-6.374s-6.373 2.859-6.373 6.374 2.859 6.373 6.373 6.373m1.16-.926c.491-.531 1.077-1.307 1.52-2.315.614.132 1.14.296 1.571.459-.784.928-1.863 1.595-3.091 1.856m3.573-2.527c-.471-.191-1.061-.39-1.769-.549.188-.593.317-1.248.354-1.969h2.232c-.067.92-.356 1.775-.817 2.518m0-5.839c.461.744.75 1.598.817 2.518h-2.232c-.037-.719-.166-1.377-.354-1.968.711-.161 1.298-.359 1.769-.55m-.482-.672c-.431.164-.957.328-1.571.461-.443-1.011-1.029-1.784-1.52-2.316 1.228.261 2.307.929 3.091 1.855m-3.85-1.483c.434.446 1.01 1.15 1.455 2.088-.449.065-.934.107-1.455.122zm0 3.015c.635-.018 1.226-.074 1.763-.159.182.545.309 1.151.349 1.817h-2.112zm0 2.46h2.112c-.04.665-.167 1.271-.353 1.817-.534-.087-1.124-.14-1.759-.159zm0 2.464c.52.016 1.003.058 1.45.122-.443.935-1.017 1.639-1.45 2.083zm-4.652.726c.431-.163.959-.327 1.573-.46.444 1.01 1.032 1.787 1.524 2.318-1.233-.261-2.312-.929-3.097-1.858m3.848 1.474c-.433-.449-1.003-1.151-1.446-2.08.447-.063.929-.105 1.446-.121zm0-3.005c-.634.019-1.22.072-1.754.157-.186-.544-.314-1.15-.352-1.815h2.106zm0-2.461h-2.106c.038-.665.166-1.271.352-1.817.534.085 1.12.141 1.754.159zm0-2.463c-.517-.015-.999-.057-1.446-.121.443-.93 1.013-1.633 1.446-2.08zm-.751-2.584c-.492.532-1.08 1.306-1.524 2.318-.614-.133-1.142-.299-1.572-.462.785-.927 1.864-1.595 3.096-1.856m-3.58 2.529c.472.191 1.061.389 1.774.55-.19.591-.318 1.249-.355 1.968h-2.235c.065-.92.356-1.775.816-2.518m-.816 3.32h2.235c.037.72.165 1.376.353 1.968-.711.16-1.3.359-1.772.55-.461-.742-.751-1.597-.816-2.518"/><path clip-path="url(#c)" d="m95.023 52.328c0-3.159-.283-3.5-1.963-3.643l-.71-.056c-.171-.114-.114-.626.057-.711 1.649.056 2.616.085 3.811.085 1.139 0 2.106-.029 3.244-.085.17.085.227.597.057.711l-.427.056c-1.678.229-1.735.625-1.735 3.643v10.555c0 2.246-.115 4.209-.654 5.517-.94 2.278-2.959 4.098-5.606 4.098-.34 0-1.222-.029-1.222-.598 0-.484.425-1.31 1.023-1.31.342 0 .684.056 1.054.172.398.113.796.199 1.194.199.598 0 .94-.342 1.139-.74.654-1.338.738-5.604.738-7.141z"/><path clip-path="url(#c)" d="m99.459 59.027c0-4.799 3.601-8.472 8.544-8.472 5.544 0 8.328 4.008 8.328 8.232 0 4.848-3.696 8.375-8.328 8.375-5.327 0-8.544-3.815-8.544-8.135m14.472.504c0-3.959-1.751-8.232-6.335-8.232-2.497 0-5.736 1.705-5.736 6.961 0 3.55 1.728 8.16 6.455 8.16 2.881 0 5.616-2.16 5.616-6.889"/><path clip-path="url(#c)" d="m121.783 59.027c-1.152 0-1.2.049-1.2.77v3.382c0 2.52.12 2.856 1.464 3l.695.073c.145.095.096.527-.047.599-1.297-.049-2.112-.072-3.049-.072-1.031 0-1.847.049-2.783.072-.144-.072-.191-.457-.049-.599l.408-.073c1.344-.24 1.393-.48 1.393-3v-8.64c0-2.52-.168-2.927-1.416-3.024l-.625-.048c-.144-.096-.095-.528.049-.6 1.176.023 1.992.072 3.023.072.937 0 1.752-.023 2.784-.072.144.072.193.504.048.6l-.456.048c-1.391.144-1.439.504-1.439 3.024v2.761c0 .743.048.768 1.2.768h6.864c1.152 0 1.201-.025 1.201-.768v-2.761c0-2.52-.049-2.88-1.465-3.024l-.455-.048c-.145-.096-.098-.528.047-.6 1.103.049 1.92.072 2.904.072.936 0 1.752-.023 2.832-.072.142.072.191.504.049.6l-.506.048c-1.39.144-1.439.504-1.439 3.024v8.64c0 2.52.049 2.832 1.439 3l.576.073c.144.095.096.527-.049.599-1.15-.049-1.966-.072-2.902-.072-.984 0-1.847.023-2.904.072-.145-.072-.192-.457-.047-.599l.455-.073c1.465-.24 1.465-.48 1.465-3v-3.382c0-.721-.049-.77-1.201-.77z"/><path clip-path="url(#c)" d="m150.225 62.699c0 .721 0 3.576.07 4.199-.047.145-.191.264-.455.264-.287-.406-.984-1.246-3.072-3.623l-5.568-6.336c-.647-.744-2.28-2.712-2.784-3.238h-.046c-.098.287-.122.838-.122 1.558v5.233c0 1.127.024 4.248.432 4.966.145.266.625.409 1.225.457l.744.073c.144.191.119.48-.049.599-1.08-.048-1.92-.072-2.807-.072-1.009 0-1.656.024-2.496.072-.168-.119-.191-.457-.049-.599l.649-.073c.551-.072.935-.216 1.057-.48.333-.863.31-3.791.31-4.943v-6.936c0-.673-.023-1.178-.527-1.728-.336-.336-.912-.505-1.489-.577l-.408-.047c-.144-.144-.144-.503.049-.601 1.008.072 2.279.072 2.711.072.385 0 .793-.023 1.105-.072.479 1.225 3.311 4.393 4.104 5.281l2.328 2.615c1.654 1.848 2.83 3.192 3.959 4.344h.049c.096-.119.096-.504.096-1.008v-5.136c0-1.128-.024-4.247-.481-4.968-.144-.216-.527-.36-1.488-.48l-.408-.047c-.168-.144-.143-.529.048-.601 1.104.049 1.92.072 2.833.072 1.031 0 1.654-.023 2.47-.072.194.121.194.457.049.601l-.336.047c-.767.12-1.248.313-1.344.504-.408.864-.359 3.84-.359 4.944z"/><path clip-path="url(#c)" d="m156.568 67.162c-2.018 0-3.289-.623-3.744-.887-.289-.529-.602-2.232-.649-3.359.12-.17.481-.217.577-.072.359 1.222 1.343 3.576 4.127 3.576 2.015 0 3-1.321 3-2.76 0-1.057-.215-2.232-1.969-3.361l-2.279-1.489c-1.2-.791-2.592-2.16-2.592-4.127 0-2.28 1.777-4.127 4.896-4.127.744 0 1.608.144 2.233.311.31.098.646.145.837.145.217.575.434 1.92.434 2.927-.096.145-.48.216-.601.073-.311-1.153-.959-2.713-3.264-2.713-2.352 0-2.856 1.56-2.856 2.666 0 1.39 1.153 2.398 2.041 2.951l1.92 1.199c1.512.936 3 2.328 3 4.608 0 2.64-1.992 4.439-5.111 4.439"/><path clip-path="url(#c)" d="m175.924 57.591c-1.365 0-1.422.055-1.422.908v4.012c0 2.986.141 3.385 1.734 3.557l.827.086c.17.113.113.625-.059.708-1.535-.056-2.502-.083-3.611-.083-1.225 0-2.192.056-3.301.083-.172-.083-.229-.539-.057-.708l.483-.086c1.593-.286 1.65-.571 1.65-3.557v-10.242c0-2.987-.199-3.471-1.678-3.584l-.74-.057c-.17-.113-.113-.626.057-.711 1.394.028 2.361.085 3.586.085 1.109 0 2.076-.028 3.299-.085.171.085.228.598.056.711l-.541.057c-1.648.172-1.705.597-1.705 3.584v3.272c0 .882.057.909 1.422.909h8.137c1.365 0 1.422-.027 1.422-.909v-3.272c0-2.987-.057-3.412-1.737-3.584l-.541-.057c-.17-.113-.113-.626.059-.711 1.306.057 2.275.085 3.441.085 1.11 0 2.078-.028 3.358-.085.17.085.228.598.056.711l-.597.057c-1.649.172-1.707.597-1.707 3.584v10.242c0 2.986.058 3.357 1.707 3.557l.683.086c.17.113.114.625-.058.708-1.364-.056-2.332-.083-3.442-.083-1.166 0-2.189.027-3.441.083-.172-.083-.229-.539-.059-.708l.541-.086c1.737-.286 1.737-.571 1.737-3.557v-4.012c0-.853-.057-.908-1.422-.908z"/><path clip-path="url(#c)" d="m190.025 59.027c0-4.799 3.602-8.472 8.543-8.472 5.545 0 8.328 4.008 8.328 8.232 0 4.848-3.695 8.375-8.328 8.375-5.326 0-8.543-3.815-8.543-8.135m14.471.504c0-3.959-1.75-8.232-6.336-8.232-2.494 0-5.734 1.705-5.734 6.961 0 3.55 1.728 8.16 6.455 8.16 2.881 0 5.615-2.16 5.615-6.889"/><path clip-path="url(#c)" d="m211.24 63.179c0 2.52.049 2.832 1.584 3l.648.072c.145.119.098.528-.048.6-1.368-.049-2.159-.072-3.12-.072-1.007 0-1.871.023-2.927.072-.145-.072-.192-.457-.047-.6l.504-.072c1.39-.191 1.439-.48 1.439-3v-8.855c0-2.041-.049-2.449-1.129-2.569l-.863-.097c-.168-.143-.145-.503.049-.599 1.271-.169 2.76-.193 4.75-.193 1.992 0 3.48.264 4.609.961 1.104.696 1.92 1.944 1.92 3.599 0 2.208-1.367 3.314-2.4 3.817-1.057.504-2.328.719-3.313.719-.168-.07-.168-.431-.023-.478 2.592-.481 3.527-1.946 3.527-4.033 0-2.329-1.367-3.839-3.863-3.839-1.272 0-1.297.094-1.297.864z"/><path clip-path="url(#c)" d="m221.227 54.539c0-2.52-.049-2.904-1.439-3.023l-.602-.048c-.143-.097-.094-.529.049-.601 1.176.049 1.943.072 3.023.072.936 0 1.752-.023 2.785-.072.143.072.192.504.047.601l-.455.048c-1.392.143-1.441.503-1.441 3.023v2.762c0 .455.049.91.314.91.215 0 .502-.143.67-.264.336-.287.961-.912 1.225-1.152l2.592-2.567c.455-.433 1.632-1.657 1.871-1.992.121-.169.17-.289.17-.385 0-.095-.096-.167-.409-.239l-.648-.144c-.168-.169-.145-.48.047-.601.84.049 1.801.072 2.64.072.84 0 1.657-.023 2.375-.072.17.121.194.457.049.601-.623.048-1.558.288-2.23.672-.672.383-2.018 1.511-3.362 2.784l-2.16 2.039c-.336.338-.552.553-.552.744 0 .17.144.361.457.744 2.279 2.615 4.127 4.776 6 6.744.576.576 1.013.889 1.828.985l.463.072c.17.119.121.527-.049.6-.623-.049-1.281-.073-2.41-.073-.983 0-1.825.024-2.928.073-.168-.049-.24-.458-.096-.6l.551-.098c.338-.047.576-.119.576-.238 0-.145-.168-.336-.336-.553-.457-.576-1.08-1.224-1.992-2.256l-1.92-2.16c-1.367-1.535-1.752-2.015-2.328-2.015-.359 0-.408.312-.408 1.152v3.096c0 2.519.049 2.855 1.392 3l.649.072c.142.096.096.527-.049.6-1.176-.049-1.992-.073-2.928-.073-.984 0-1.799.024-2.783.073-.144-.073-.193-.432-.049-.6l.481-.072c1.271-.192 1.32-.481 1.32-3z"/><path clip-path="url(#c)" d="m237.699 54.587c0-2.544-.047-2.953-1.465-3.072l-.598-.048c-.144-.097-.097-.528.047-.601 1.2.049 2.016.073 3.024.073.961 0 1.777-.024 2.976-.073.145.073.192.504.049.601l-.601.048c-1.416.119-1.463.528-1.463 3.072v8.543c0 2.545.047 2.881 1.463 3.049l.601.072c.143.096.096.527-.049.6-1.199-.049-2.015-.073-2.976-.073-1.008 0-1.733.024-2.932.073-.144-.073-.191-.457-.047-.6l.506-.072c1.418-.168 1.465-.504 1.465-3.049z"/><path clip-path="url(#c)" d="m258.459 62.699c0 .721 0 3.576.074 4.199-.049.145-.193.264-.457.264-.287-.406-.984-1.246-3.072-3.623l-5.568-6.336c-.647-.744-2.28-2.712-2.784-3.238h-.047c-.097.287-.121.838-.121 1.558v5.233c0 1.127.024 4.248.432 4.966.145.266.625.409 1.225.457l.744.073c.142.191.119.48-.049.599-1.08-.048-1.92-.072-2.807-.072-1.008 0-1.656.024-2.496.072-.168-.119-.193-.457-.049-.599l.649-.073c.551-.072.935-.216 1.056-.48.336-.863.311-3.791.311-4.943v-6.936c0-.673-.023-1.178-.527-1.728-.336-.336-.912-.505-1.489-.577l-.408-.047c-.144-.144-.144-.503.049-.601 1.008.072 2.279.072 2.711.072.385 0 .793-.023 1.105-.072.481 1.225 3.311 4.393 4.102 5.281l2.33 2.615c1.656 1.848 2.83 3.192 3.959 4.344h.049c.096-.119.096-.504.096-1.008v-5.136c0-1.128-.024-4.247-.481-4.968-.144-.216-.527-.36-1.486-.48l-.408-.047c-.17-.144-.145-.529.046-.601 1.104.049 1.92.072 2.832.072 1.034 0 1.657-.023 2.471-.072.194.121.194.457.049.601l-.336.047c-.768.12-1.248.313-1.344.504-.408.864-.361 3.84-.361 4.944z"/><path clip-path="url(#c)" d="m264.764 67.162c-2.018 0-3.289-.623-3.746-.887-.287-.529-.6-2.232-.649-3.359.122-.17.483-.217.577-.072.361 1.222 1.345 3.576 4.129 3.576 2.015 0 3-1.321 3-2.76 0-1.057-.217-2.232-1.969-3.361l-2.278-1.489c-1.201-.791-2.593-2.16-2.593-4.127 0-2.28 1.775-4.127 4.896-4.127.744 0 1.608.144 2.233.311.312.098.646.145.837.145.217.575.434 1.92.434 2.927-.098.145-.48.216-.601.073-.311-1.153-.959-2.713-3.262-2.713-2.354 0-2.858 1.56-2.858 2.666 0 1.39 1.153 2.398 2.039 2.951l1.922 1.199c1.512.936 3 2.328 3 4.608 0 2.64-1.992 4.439-5.111 4.439"/></g></svg>